<svg width="70" height="55" viewBox="0 0 70 55" fill="none" xmlns="http://www.w3.org/2000/svg">
<path d="M63.9426 0.0221568C63.6559 -0.00738561 63.3669 -0.00738561 63.0802 0.0221568H4.18595C3.80849 0.0279729 3.43353 0.0845707 3.07117 0.190426L33.4648 30.4579L63.9426 0.0221568Z" fill="#073466"/>
<path d="M63.2361 44.68C63.2361 45.82 63.56 46.2747 64.4072 46.2747C66.2954 46.2747 67.4978 43.8656 67.4978 39.8592C67.4978 33.7355 63.0409 30.804 57.4765 30.804C51.7522 30.804 46.5458 34.6475 46.5458 41.9113C46.5458 48.8493 51.1002 52.6277 58.0946 52.6277C60.4695 52.6277 62.0635 52.3671 64.5021 51.5528L65.0253 53.7338C62.6179 54.5169 60.0452 54.7436 58.0621 54.7436C48.8881 54.7436 43.9744 49.6948 43.9744 41.9099C43.9744 34.0599 49.6688 28.7179 57.5091 28.7179C65.6746 28.7179 70 33.6039 70 39.5973C70 44.6786 68.4073 48.5548 63.3974 48.5548C61.1188 48.5548 59.6236 47.6427 59.4284 45.6219C58.8429 47.8694 57.2813 48.5548 55.1654 48.5548C52.3351 48.5548 49.9603 46.371 49.9603 41.9751C49.9603 37.5452 52.0437 34.8091 55.7849 34.8091C57.7693 34.8091 59.0055 35.5908 59.5559 36.8286L60.5006 35.1022H63.2333V44.68H63.2361ZM59.236 40.3804C59.236 38.5902 57.9008 37.8397 56.7947 37.8397C55.591 37.8397 54.2586 38.8155 54.2586 41.6833C54.2586 43.9634 55.2671 45.2337 56.7947 45.2337C57.8683 45.2337 59.236 44.5497 59.236 42.6604V40.3804Z" fill="#073466"/>
<path fill-rule="evenodd" clip-rule="evenodd" d="M36.4303 33.4446L67.0553 2.94582C67.2058 3.35774 67.2909 3.79065 67.3077 4.22888V27.5243C64.8068 26.0128 61.5775 25.1282 57.653 25.1282C47.65 25.1282 40.3846 31.9438 40.3846 41.9593C40.3846 45.2176 41.0592 48.1002 42.3791 50.5029H4.20673C3.09104 50.5029 2.02104 50.0597 1.23212 49.2708C0.443208 48.4819 0 47.4119 0 46.2962V4.22888C0.00445637 3.8735 0.0539291 3.52013 0.147236 3.17719L30.4988 33.4446C31.287 34.2281 32.3532 34.6679 33.4645 34.6679C34.5759 34.6679 35.6421 34.2281 36.4303 33.4446ZM4.16466 46.2962H7.08834L22.4219 31.0889L19.4561 28.1231L4.16466 43.2884V46.2962Z" fill="#073466"/>
</svg>
