<svg width="70" height="57" viewBox="0 0 70 57" fill="none" xmlns="http://www.w3.org/2000/svg">
<path d="M60.5159 36.0549C60.1783 33.7094 58.3673 31.8808 56.0358 31.3357C46.9738 29.2117 44.7021 23.9932 44.3188 18.205C42.7117 17.9061 39.8528 17.5826 35 17.5826C30.1472 17.5826 27.2883 17.9061 25.6812 18.205C25.2979 23.9932 23.0263 29.2117 13.9642 31.3357C11.6328 31.8843 9.82175 33.7094 9.48416 36.0549L7.73645 48.1587C7.12106 52.4207 10.2508 56.2643 14.6042 56.2643H55.3958C59.7458 56.2643 62.879 52.4207 62.2636 48.1587L60.5159 36.0549ZM35 47.4449C30.0945 47.4449 26.1173 43.5064 26.1173 38.6536C26.1173 33.8008 30.0945 29.8623 35 29.8623C39.9056 29.8623 43.8827 33.8008 43.8827 38.6536C43.8827 43.5064 39.9021 47.4449 35 47.4449ZM69.9894 14.0661C69.905 8.7913 56.4789 0.00351652 35 0C13.5176 0.00351652 0.0915406 8.7913 0.0106606 14.0661C-0.0702193 19.3409 0.0845077 26.2051 8.92504 25.0622C19.2671 23.7224 18.6306 20.111 18.6306 14.9487C18.6306 11.3478 27.0421 10.4792 35 10.4792C42.9579 10.4792 51.3659 11.3478 51.3694 14.9487C51.3694 20.111 50.7329 23.7224 61.075 25.0622C69.912 26.2051 70.0703 19.3409 69.9894 14.0661Z" fill="#073466"/>
</svg>
