<svg width="30" height="37" viewBox="0 0 30 37" fill="none" xmlns="http://www.w3.org/2000/svg">
<path d="M22.1954 26L20.8352 28.5767L27.4952 27.4798C26.1512 26.8007 24.3318 26.3154 22.1954 26ZM5.03894 26.5618C1.95424 27.3813 0 28.7243 0 30.7189C0.00127016 31.1484 0.0944468 31.5725 0.273177 31.9623L10.962 30.2023L5.03894 26.5618ZM29.7494 29.5556L14.8729 31.9982L18.7962 36.4946C25.2388 35.9132 30 33.84 30 30.7189C30 30.3029 29.9111 29.9164 29.7494 29.5559V29.5556ZM12.3593 32.4196L2.30753 34.0747C4.96447 35.733 9.654 36.6667 15 36.6667C15.324 36.6667 15.6406 36.6574 15.9596 36.6507L12.3593 32.4196Z" fill="#073466"/>
<path d="M15.0007 0C9.32415 0 4.66663 4.81921 4.66663 10.6975C4.66663 12.9572 5.3586 15.0623 6.52699 16.7933L13.2253 28.8115L13.2538 28.8502C13.5181 29.2084 13.7762 29.491 14.0792 29.6989C14.3822 29.9071 14.7583 30.0314 15.1274 29.9931C15.865 29.9165 16.3167 29.3757 16.7454 28.7728L16.7684 28.7418L24.1632 15.6786L24.1673 15.6703C24.3408 15.345 24.4689 15.0139 24.5776 14.6915C25.0764 13.4235 25.3331 12.067 25.3333 10.6975C25.3333 4.81921 20.6772 0 15.0007 0ZM15.0007 6.16091C17.4631 6.16091 19.3851 8.15214 19.3851 10.6971C19.3851 13.2428 17.4631 15.2333 15.0007 15.2333C12.5378 15.2333 10.6148 13.2424 10.6148 10.6971C10.6148 8.1525 12.5382 6.16091 15.0007 6.16091Z" fill="#073466"/>
</svg>
