<svg width="128" height="24" viewBox="0 0 128 24" fill="none" xmlns="http://www.w3.org/2000/svg">
<path d="M11.032 23.196C9.184 23.196 7.48533 22.7667 5.936 21.908C4.40533 21.0493 3.18267 19.8547 2.268 18.324C1.372 16.7747 0.924 15.0387 0.924 13.116C0.924 11.1933 1.372 9.46667 2.268 7.936C3.18267 6.40533 4.40533 5.21067 5.936 4.352C7.48533 3.49333 9.184 3.064 11.032 3.064C12.88 3.064 14.5693 3.49333 16.1 4.352C17.6493 5.21067 18.8627 6.40533 19.74 7.936C20.636 9.46667 21.084 11.1933 21.084 13.116C21.084 15.0387 20.636 16.7747 19.74 18.324C18.844 19.8547 17.6307 21.0493 16.1 21.908C14.5693 22.7667 12.88 23.196 11.032 23.196ZM11.032 18.828C12.6 18.828 13.8507 18.3053 14.784 17.26C15.736 16.2147 16.212 14.8333 16.212 13.116C16.212 11.38 15.736 9.99867 14.784 8.972C13.8507 7.92667 12.6 7.404 11.032 7.404C9.44533 7.404 8.176 7.91733 7.224 8.944C6.29067 9.97067 5.824 11.3613 5.824 13.116C5.824 14.852 6.29067 16.2427 7.224 17.288C8.176 18.3147 9.44533 18.828 11.032 18.828ZM33.2677 7.208C35.0971 7.208 36.5531 7.80533 37.6357 9C38.7371 10.176 39.2877 11.8 39.2877 13.872V23H34.5277V14.516C34.5277 13.4707 34.2571 12.6587 33.7157 12.08C33.1744 11.5013 32.4464 11.212 31.5317 11.212C30.6171 11.212 29.8891 11.5013 29.3477 12.08C28.8064 12.6587 28.5357 13.4707 28.5357 14.516V23H23.7477V7.376H28.5357V9.448C29.0211 8.75733 29.6744 8.216 30.4957 7.824C31.3171 7.41333 32.2411 7.208 33.2677 7.208ZM41.6629 15.16C41.6629 13.5547 41.9616 12.1453 42.5589 10.932C43.1749 9.71867 44.0056 8.78533 45.0509 8.132C46.0962 7.47867 47.2629 7.152 48.5509 7.152C49.6522 7.152 50.6136 7.376 51.4349 7.824C52.2749 8.272 52.9189 8.86 53.3669 9.588V7.376H58.1549V23H53.3669V20.788C52.9002 21.516 52.2469 22.104 51.4069 22.552C50.5856 23 49.6242 23.224 48.5229 23.224C47.2536 23.224 46.0962 22.8973 45.0509 22.244C44.0056 21.572 43.1749 20.6293 42.5589 19.416C41.9616 18.184 41.6629 16.7653 41.6629 15.16ZM53.3669 15.188C53.3669 13.9933 53.0309 13.0507 52.3589 12.36C51.7056 11.6693 50.9029 11.324 49.9509 11.324C48.9989 11.324 48.1869 11.6693 47.5149 12.36C46.8616 13.032 46.5349 13.9653 46.5349 15.16C46.5349 16.3547 46.8616 17.3067 47.5149 18.016C48.1869 18.7067 48.9989 19.052 49.9509 19.052C50.9029 19.052 51.7056 18.7067 52.3589 18.016C53.0309 17.3253 53.3669 16.3827 53.3669 15.188ZM66.4068 2.28V23H61.6188V2.28H66.4068ZM74.6646 2.28V23H69.8766V2.28H74.6646ZM85.2464 23.224C83.7158 23.224 82.3344 22.8973 81.1024 22.244C79.8891 21.5907 78.9278 20.6573 78.2184 19.444C77.5278 18.2307 77.1824 16.812 77.1824 15.188C77.1824 13.5827 77.5371 12.1733 78.2464 10.96C78.9558 9.728 79.9264 8.78533 81.1584 8.132C82.3904 7.47867 83.7718 7.152 85.3024 7.152C86.8331 7.152 88.2144 7.47867 89.4464 8.132C90.6784 8.78533 91.6491 9.728 92.3584 10.96C93.0678 12.1733 93.4224 13.5827 93.4224 15.188C93.4224 16.7933 93.0584 18.212 92.3304 19.444C91.6211 20.6573 90.6411 21.5907 89.3904 22.244C88.1584 22.8973 86.7771 23.224 85.2464 23.224ZM85.2464 19.08C86.1611 19.08 86.9358 18.744 87.5704 18.072C88.2238 17.4 88.5504 16.4387 88.5504 15.188C88.5504 13.9373 88.2331 12.976 87.5984 12.304C86.9824 11.632 86.2171 11.296 85.3024 11.296C84.3691 11.296 83.5944 11.632 82.9784 12.304C82.3624 12.9573 82.0544 13.9187 82.0544 15.188C82.0544 16.4387 82.3531 17.4 82.9504 18.072C83.5664 18.744 84.3318 19.08 85.2464 19.08ZM98.2026 23.224C97.3626 23.224 96.6719 22.9813 96.1306 22.496C95.6079 21.992 95.3466 21.376 95.3466 20.648C95.3466 19.9013 95.6079 19.276 96.1306 18.772C96.6719 18.268 97.3626 18.016 98.2026 18.016C99.0239 18.016 99.6959 18.268 100.219 18.772C100.76 19.276 101.031 19.9013 101.031 20.648C101.031 21.376 100.76 21.992 100.219 22.496C99.6959 22.9813 99.0239 23.224 98.2026 23.224ZM106.273 5.752C105.433 5.752 104.742 5.50933 104.201 5.024C103.678 4.52 103.417 3.904 103.417 3.176C103.417 2.42933 103.678 1.81333 104.201 1.328C104.742 0.823998 105.433 0.571998 106.273 0.571998C107.094 0.571998 107.766 0.823998 108.289 1.328C108.83 1.81333 109.101 2.42933 109.101 3.176C109.101 3.904 108.83 4.52 108.289 5.024C107.766 5.50933 107.094 5.752 106.273 5.752ZM108.653 7.376V23H103.865V7.376H108.653ZM111.171 15.16C111.171 13.5547 111.469 12.1453 112.067 10.932C112.683 9.71867 113.513 8.78533 114.559 8.132C115.604 7.47867 116.771 7.152 118.059 7.152C119.085 7.152 120.019 7.36667 120.859 7.796C121.717 8.22533 122.389 8.804 122.875 9.532V2.28H127.663V23H122.875V20.76C122.427 21.5067 121.783 22.104 120.943 22.552C120.121 23 119.16 23.224 118.059 23.224C116.771 23.224 115.604 22.8973 114.559 22.244C113.513 21.572 112.683 20.6293 112.067 19.416C111.469 18.184 111.171 16.7653 111.171 15.16ZM122.875 15.188C122.875 13.9933 122.539 13.0507 121.867 12.36C121.213 11.6693 120.411 11.324 119.459 11.324C118.507 11.324 117.695 11.6693 117.023 12.36C116.369 13.032 116.043 13.9653 116.043 15.16C116.043 16.3547 116.369 17.3067 117.023 18.016C117.695 18.7067 118.507 19.052 119.459 19.052C120.411 19.052 121.213 18.7067 121.867 18.016C122.539 17.3253 122.875 16.3827 122.875 15.188Z" fill="#073466"/>
</svg>
