<svg width="149" height="39" viewBox="0 0 149 39" fill="none" xmlns="http://www.w3.org/2000/svg">
<path d="M0.188 16.328C0.188 13.832 0.728 11.612 1.808 9.668C2.888 7.7 4.388 6.176 6.308 5.096C8.252 3.992 10.448 3.44 12.896 3.44C15.896 3.44 18.464 4.232 20.6 5.816C22.736 7.4 24.164 9.56 24.884 12.296H18.116C17.612 11.24 16.892 10.436 15.956 9.884C15.044 9.332 14 9.056 12.824 9.056C10.928 9.056 9.392 9.716 8.216 11.036C7.04 12.356 6.452 14.12 6.452 16.328C6.452 18.536 7.04 20.3 8.216 21.62C9.392 22.94 10.928 23.6 12.824 23.6C14 23.6 15.044 23.324 15.956 22.772C16.892 22.22 17.612 21.416 18.116 20.36H24.884C24.164 23.096 22.736 25.256 20.6 26.84C18.464 28.4 15.896 29.18 12.896 29.18C10.448 29.18 8.252 28.64 6.308 27.56C4.388 26.456 2.888 24.932 1.808 22.988C0.728 21.044 0.188 18.824 0.188 16.328ZM37.7979 29.288C35.8299 29.288 34.0539 28.868 32.4699 28.028C30.9099 27.188 29.6739 25.988 28.7619 24.428C27.8739 22.868 27.4299 21.044 27.4299 18.956C27.4299 16.892 27.8859 15.08 28.7979 13.52C29.7099 11.936 30.9579 10.724 32.5419 9.884C34.1259 9.044 35.9019 8.624 37.8699 8.624C39.8379 8.624 41.6139 9.044 43.1979 9.884C44.7819 10.724 46.0299 11.936 46.9419 13.52C47.8539 15.08 48.3099 16.892 48.3099 18.956C48.3099 21.02 47.8419 22.844 46.9059 24.428C45.9939 25.988 44.7339 27.188 43.1259 28.028C41.5419 28.868 39.7659 29.288 37.7979 29.288ZM37.7979 23.96C38.9739 23.96 39.9699 23.528 40.7859 22.664C41.6259 21.8 42.0459 20.564 42.0459 18.956C42.0459 17.348 41.6379 16.112 40.8219 15.248C40.0299 14.384 39.0459 13.952 37.8699 13.952C36.6699 13.952 35.6739 14.384 34.8819 15.248C34.0899 16.088 33.6939 17.324 33.6939 18.956C33.6939 20.564 34.0779 21.8 34.8459 22.664C35.6379 23.528 36.6219 23.96 37.7979 23.96ZM59.7478 29.288C57.9958 29.288 56.4358 28.988 55.0678 28.388C53.6998 27.788 52.6198 26.972 51.8278 25.94C51.0358 24.884 50.5918 23.708 50.4958 22.412H56.5798C56.6518 23.108 56.9758 23.672 57.5518 24.104C58.1278 24.536 58.8358 24.752 59.6758 24.752C60.4438 24.752 61.0318 24.608 61.4398 24.32C61.8718 24.008 62.0878 23.612 62.0878 23.132C62.0878 22.556 61.7878 22.136 61.1878 21.872C60.5878 21.584 59.6158 21.272 58.2718 20.936C56.8318 20.6 55.6318 20.252 54.6718 19.892C53.7118 19.508 52.8838 18.92 52.1878 18.128C51.4918 17.312 51.1438 16.22 51.1438 14.852C51.1438 13.7 51.4558 12.656 52.0798 11.72C52.7278 10.76 53.6638 10.004 54.8878 9.452C56.1358 8.9 57.6118 8.624 59.3158 8.624C61.8358 8.624 63.8158 9.248 65.2558 10.496C66.7198 11.744 67.5598 13.4 67.7758 15.464H62.0878C61.9918 14.768 61.6798 14.216 61.1518 13.808C60.6478 13.4 59.9758 13.196 59.1358 13.196C58.4158 13.196 57.8638 13.34 57.4798 13.628C57.0958 13.892 56.9038 14.264 56.9038 14.744C56.9038 15.32 57.2038 15.752 57.8038 16.04C58.4278 16.328 59.3878 16.616 60.6838 16.904C62.1718 17.288 63.3838 17.672 64.3198 18.056C65.2558 18.416 66.0718 19.016 66.7678 19.856C67.4878 20.672 67.8598 21.776 67.8838 23.168C67.8838 24.344 67.5478 25.4 66.8758 26.336C66.2278 27.248 65.2798 27.968 64.0318 28.496C62.8078 29.024 61.3798 29.288 59.7478 29.288ZM74.746 6.824C73.666 6.824 72.778 6.512 72.082 5.888C71.41 5.24 71.074 4.448 71.074 3.512C71.074 2.552 71.41 1.76 72.082 1.136C72.778 0.487998 73.666 0.163998 74.746 0.163998C75.802 0.163998 76.666 0.487998 77.338 1.136C78.034 1.76 78.382 2.552 78.382 3.512C78.382 4.448 78.034 5.24 77.338 5.888C76.666 6.512 75.802 6.824 74.746 6.824ZM77.806 8.912V29H71.65V8.912H77.806ZM88.4232 2.36V29H82.2672V2.36H88.4232ZM113.404 8.912L100.804 38.54H94.1803L98.7883 28.316L90.6163 8.912H97.4923L102.136 21.476L106.744 8.912H113.404ZM121.786 3.728V29H115.63V3.728H121.786ZM135.716 3.728C138.38 3.728 140.708 4.256 142.7 5.312C144.692 6.368 146.228 7.856 147.308 9.776C148.412 11.672 148.964 13.868 148.964 16.364C148.964 18.836 148.412 21.032 147.308 22.952C146.228 24.872 144.68 26.36 142.664 27.416C140.672 28.472 138.356 29 135.716 29H126.248V3.728H135.716ZM135.32 23.672C137.648 23.672 139.46 23.036 140.756 21.764C142.052 20.492 142.7 18.692 142.7 16.364C142.7 14.036 142.052 12.224 140.756 10.928C139.46 9.632 137.648 8.984 135.32 8.984H132.404V23.672H135.32Z" fill="#073466"/>
</svg>
