<svg width="117" height="31" viewBox="0 0 117 31" fill="none" xmlns="http://www.w3.org/2000/svg">
<path d="M0.924 13.144C0.924 11.2027 1.344 9.476 2.184 7.964C3.024 6.43333 4.19067 5.248 5.684 4.408C7.196 3.54933 8.904 3.12 10.808 3.12C13.1413 3.12 15.1387 3.736 16.8 4.968C18.4613 6.2 19.572 7.88 20.132 10.008H14.868C14.476 9.18667 13.916 8.56133 13.188 8.132C12.4787 7.70267 11.6667 7.488 10.752 7.488C9.27733 7.488 8.08267 8.00133 7.168 9.028C6.25333 10.0547 5.796 11.4267 5.796 13.144C5.796 14.8613 6.25333 16.2333 7.168 17.26C8.08267 18.2867 9.27733 18.8 10.752 18.8C11.6667 18.8 12.4787 18.5853 13.188 18.156C13.916 17.7267 14.476 17.1013 14.868 16.28H20.132C19.572 18.408 18.4613 20.088 16.8 21.32C15.1387 22.5333 13.1413 23.14 10.808 23.14C8.904 23.14 7.196 22.72 5.684 21.88C4.19067 21.0213 3.024 19.836 2.184 18.324C1.344 16.812 0.924 15.0853 0.924 13.144ZM30.1761 23.224C28.6455 23.224 27.2641 22.8973 26.0321 22.244C24.8188 21.5907 23.8575 20.6573 23.1481 19.444C22.4575 18.2307 22.1121 16.812 22.1121 15.188C22.1121 13.5827 22.4668 12.1733 23.1761 10.96C23.8855 9.728 24.8561 8.78533 26.0881 8.132C27.3201 7.47867 28.7015 7.152 30.2321 7.152C31.7628 7.152 33.1441 7.47867 34.3761 8.132C35.6081 8.78533 36.5788 9.728 37.2881 10.96C37.9975 12.1733 38.3521 13.5827 38.3521 15.188C38.3521 16.7933 37.9881 18.212 37.2601 19.444C36.5508 20.6573 35.5708 21.5907 34.3201 22.244C33.0881 22.8973 31.7068 23.224 30.1761 23.224ZM30.1761 19.08C31.0908 19.08 31.8655 18.744 32.5001 18.072C33.1535 17.4 33.4801 16.4387 33.4801 15.188C33.4801 13.9373 33.1628 12.976 32.5281 12.304C31.9121 11.632 31.1468 11.296 30.2321 11.296C29.2988 11.296 28.5241 11.632 27.9081 12.304C27.2921 12.9573 26.9841 13.9187 26.9841 15.188C26.9841 16.4387 27.2828 17.4 27.8801 18.072C28.4961 18.744 29.2615 19.08 30.1761 19.08ZM47.2483 23.224C45.8856 23.224 44.6723 22.9907 43.6083 22.524C42.5443 22.0573 41.7043 21.4227 41.0883 20.62C40.4723 19.7987 40.1269 18.884 40.0523 17.876H44.7843C44.8403 18.4173 45.0923 18.856 45.5403 19.192C45.9883 19.528 46.5389 19.696 47.1923 19.696C47.7896 19.696 48.2469 19.584 48.5643 19.36C48.9003 19.1173 49.0683 18.8093 49.0683 18.436C49.0683 17.988 48.8349 17.6613 48.3683 17.456C47.9016 17.232 47.1456 16.9893 46.1003 16.728C44.9803 16.4667 44.0469 16.196 43.3003 15.916C42.5536 15.6173 41.9096 15.16 41.3683 14.544C40.8269 13.9093 40.5563 13.06 40.5563 11.996C40.5563 11.1 40.7989 10.288 41.2843 9.56C41.7883 8.81333 42.5163 8.22533 43.4683 7.796C44.4389 7.36667 45.5869 7.152 46.9123 7.152C48.8723 7.152 50.4123 7.63733 51.5323 8.608C52.6709 9.57867 53.3243 10.8667 53.4923 12.472H49.0683C48.9936 11.9307 48.7509 11.5013 48.3403 11.184C47.9483 10.8667 47.4256 10.708 46.7723 10.708C46.2123 10.708 45.7829 10.82 45.4843 11.044C45.1856 11.2493 45.0363 11.5387 45.0363 11.912C45.0363 12.36 45.2696 12.696 45.7363 12.92C46.2216 13.144 46.9683 13.368 47.9763 13.592C49.1336 13.8907 50.0763 14.1893 50.8043 14.488C51.5323 14.768 52.1669 15.2347 52.7083 15.888C53.2683 16.5227 53.5576 17.3813 53.5763 18.464C53.5763 19.3787 53.3149 20.2 52.7923 20.928C52.2883 21.6373 51.5509 22.1973 50.5803 22.608C49.6283 23.0187 48.5176 23.224 47.2483 23.224ZM58.9135 5.752C58.0735 5.752 57.3829 5.50933 56.8415 5.024C56.3189 4.52 56.0575 3.904 56.0575 3.176C56.0575 2.42933 56.3189 1.81333 56.8415 1.328C57.3829 0.823998 58.0735 0.571998 58.9135 0.571998C59.7349 0.571998 60.4069 0.823998 60.9295 1.328C61.4709 1.81333 61.7415 2.42933 61.7415 3.176C61.7415 3.904 61.4709 4.52 60.9295 5.024C60.4069 5.50933 59.7349 5.752 58.9135 5.752ZM61.2935 7.376V23H56.5055V7.376H61.2935ZM69.5513 2.28V23H64.7633V2.28H69.5513ZM88.9812 7.376L79.1812 30.42H74.0292L77.6132 22.468L71.2572 7.376H76.6052L80.2172 17.148L83.8012 7.376H88.9812ZM95.5006 3.344V23H90.7126V3.344H95.5006ZM106.334 3.344C108.406 3.344 110.217 3.75467 111.766 4.576C113.316 5.39733 114.51 6.55467 115.35 8.048C116.209 9.52267 116.638 11.2307 116.638 13.172C116.638 15.0947 116.209 16.8027 115.35 18.296C114.51 19.7893 113.306 20.9467 111.738 21.768C110.189 22.5893 108.388 23 106.334 23H98.9704V3.344H106.334ZM106.026 18.856C107.837 18.856 109.246 18.3613 110.254 17.372C111.262 16.3827 111.766 14.9827 111.766 13.172C111.766 11.3613 111.262 9.952 110.254 8.944C109.246 7.936 107.837 7.432 106.026 7.432H103.758V18.856H106.026Z" fill="#073466"/>
</svg>
