<svg width="130" height="22" viewBox="0 0 130 22" fill="none" xmlns="http://www.w3.org/2000/svg">
<path d="M11.032 21.196C9.184 21.196 7.48533 20.7667 5.936 19.908C4.40533 19.0493 3.18267 17.8547 2.268 16.324C1.372 14.7747 0.924 13.0387 0.924 11.116C0.924 9.19333 1.372 7.46667 2.268 5.936C3.18267 4.40533 4.40533 3.21067 5.936 2.352C7.48533 1.49333 9.184 1.064 11.032 1.064C12.88 1.064 14.5693 1.49333 16.1 2.352C17.6493 3.21067 18.8627 4.40533 19.74 5.936C20.636 7.46667 21.084 9.19333 21.084 11.116C21.084 13.0387 20.636 14.7747 19.74 16.324C18.844 17.8547 17.6307 19.0493 16.1 19.908C14.5693 20.7667 12.88 21.196 11.032 21.196ZM11.032 16.828C12.6 16.828 13.8507 16.3053 14.784 15.26C15.736 14.2147 16.212 12.8333 16.212 11.116C16.212 9.38 15.736 7.99867 14.784 6.972C13.8507 5.92667 12.6 5.404 11.032 5.404C9.44533 5.404 8.176 5.91733 7.224 6.944C6.29067 7.97067 5.824 9.36133 5.824 11.116C5.824 12.852 6.29067 14.2427 7.224 15.288C8.176 16.3147 9.44533 16.828 11.032 16.828ZM33.2677 5.208C35.0971 5.208 36.5531 5.80533 37.6357 7C38.7371 8.176 39.2877 9.8 39.2877 11.872V21H34.5277V12.516C34.5277 11.4707 34.2571 10.6587 33.7157 10.08C33.1744 9.50133 32.4464 9.212 31.5317 9.212C30.6171 9.212 29.8891 9.50133 29.3477 10.08C28.8064 10.6587 28.5357 11.4707 28.5357 12.516V21H23.7477V5.376H28.5357V7.448C29.0211 6.75733 29.6744 6.216 30.4957 5.824C31.3171 5.41333 32.2411 5.208 33.2677 5.208ZM41.6629 13.16C41.6629 11.5547 41.9616 10.1453 42.5589 8.932C43.1749 7.71867 44.0056 6.78533 45.0509 6.132C46.0962 5.47867 47.2629 5.152 48.5509 5.152C49.6522 5.152 50.6136 5.376 51.4349 5.824C52.2749 6.272 52.9189 6.86 53.3669 7.588V5.376H58.1549V21H53.3669V18.788C52.9002 19.516 52.2469 20.104 51.4069 20.552C50.5856 21 49.6242 21.224 48.5229 21.224C47.2536 21.224 46.0962 20.8973 45.0509 20.244C44.0056 19.572 43.1749 18.6293 42.5589 17.416C41.9616 16.184 41.6629 14.7653 41.6629 13.16ZM53.3669 13.188C53.3669 11.9933 53.0309 11.0507 52.3589 10.36C51.7056 9.66933 50.9029 9.324 49.9509 9.324C48.9989 9.324 48.1869 9.66933 47.5149 10.36C46.8616 11.032 46.5349 11.9653 46.5349 13.16C46.5349 14.3547 46.8616 15.3067 47.5149 16.016C48.1869 16.7067 48.9989 17.052 49.9509 17.052C50.9029 17.052 51.7056 16.7067 52.3589 16.016C53.0309 15.3253 53.3669 14.3827 53.3669 13.188ZM66.4068 0.28V21H61.6188V0.28H66.4068ZM74.6646 0.28V21H69.8766V0.28H74.6646ZM85.2464 21.224C83.7158 21.224 82.3344 20.8973 81.1024 20.244C79.8891 19.5907 78.9278 18.6573 78.2184 17.444C77.5278 16.2307 77.1824 14.812 77.1824 13.188C77.1824 11.5827 77.5371 10.1733 78.2464 8.96C78.9558 7.728 79.9264 6.78533 81.1584 6.132C82.3904 5.47867 83.7718 5.152 85.3024 5.152C86.8331 5.152 88.2144 5.47867 89.4464 6.132C90.6784 6.78533 91.6491 7.728 92.3584 8.96C93.0678 10.1733 93.4224 11.5827 93.4224 13.188C93.4224 14.7933 93.0584 16.212 92.3304 17.444C91.6211 18.6573 90.6411 19.5907 89.3904 20.244C88.1584 20.8973 86.7771 21.224 85.2464 21.224ZM85.2464 17.08C86.1611 17.08 86.9358 16.744 87.5704 16.072C88.2238 15.4 88.5504 14.4387 88.5504 13.188C88.5504 11.9373 88.2331 10.976 87.5984 10.304C86.9824 9.632 86.2171 9.296 85.3024 9.296C84.3691 9.296 83.5944 9.632 82.9784 10.304C82.3624 10.9573 82.0544 11.9187 82.0544 13.188C82.0544 14.4387 82.3531 15.4 82.9504 16.072C83.5664 16.744 84.3318 17.08 85.2464 17.08ZM98.2026 21.224C97.3626 21.224 96.6719 20.9813 96.1306 20.496C95.6079 19.992 95.3466 19.376 95.3466 18.648C95.3466 17.9013 95.6079 17.276 96.1306 16.772C96.6719 16.268 97.3626 16.016 98.2026 16.016C99.0239 16.016 99.6959 16.268 100.219 16.772C100.76 17.276 101.031 17.9013 101.031 18.648C101.031 19.376 100.76 19.992 100.219 20.496C99.6959 20.9813 99.0239 21.224 98.2026 21.224ZM108.653 1.344V21H103.865V1.344H108.653ZM119.487 1.344C121.559 1.344 123.369 1.75467 124.919 2.576C126.468 3.39733 127.663 4.55467 128.503 6.048C129.361 7.52267 129.791 9.23067 129.791 11.172C129.791 13.0947 129.361 14.8027 128.503 16.296C127.663 17.7893 126.459 18.9467 124.891 19.768C123.341 20.5893 121.54 21 119.487 21H112.123V1.344H119.487ZM119.179 16.856C120.989 16.856 122.399 16.3613 123.407 15.372C124.415 14.3827 124.919 12.9827 124.919 11.172C124.919 9.36133 124.415 7.952 123.407 6.944C122.399 5.936 120.989 5.432 119.179 5.432H116.911V16.856H119.179Z" fill="#073466"/>
</svg>
