<svg width="148" height="25" viewBox="0 0 148 25" fill="none" xmlns="http://www.w3.org/2000/svg">
<path d="M11.608 24.224C9.496 24.224 7.55467 23.7333 5.784 22.752C4.03467 21.7707 2.63733 20.4053 1.592 18.656C0.568 16.8853 0.056 14.9013 0.056 12.704C0.056 10.5067 0.568 8.53333 1.592 6.784C2.63733 5.03467 4.03467 3.66933 5.784 2.688C7.55467 1.70667 9.496 1.216 11.608 1.216C13.72 1.216 15.6507 1.70667 17.4 2.688C19.1707 3.66933 20.5573 5.03467 21.56 6.784C22.584 8.53333 23.096 10.5067 23.096 12.704C23.096 14.9013 22.584 16.8853 21.56 18.656C20.536 20.4053 19.1493 21.7707 17.4 22.752C15.6507 23.7333 13.72 24.224 11.608 24.224ZM11.608 19.232C13.4 19.232 14.8293 18.6347 15.896 17.44C16.984 16.2453 17.528 14.6667 17.528 12.704C17.528 10.72 16.984 9.14133 15.896 7.968C14.8293 6.77333 13.4 6.176 11.608 6.176C9.79467 6.176 8.344 6.76267 7.256 7.936C6.18933 9.10933 5.656 10.6987 5.656 12.704C5.656 14.688 6.18933 16.2773 7.256 17.472C8.344 18.6453 9.79467 19.232 11.608 19.232ZM37.0203 5.952C39.1109 5.952 40.7749 6.63467 42.0123 8C43.2709 9.344 43.9003 11.2 43.9003 13.568V24H38.4603V14.304C38.4603 13.1093 38.1509 12.1813 37.5323 11.52C36.9136 10.8587 36.0816 10.528 35.0363 10.528C33.9909 10.528 33.1589 10.8587 32.5403 11.52C31.9216 12.1813 31.6123 13.1093 31.6123 14.304V24H26.1403V6.144H31.6123V8.512C32.1669 7.72267 32.9136 7.104 33.8523 6.656C34.7909 6.18667 35.8469 5.952 37.0203 5.952ZM46.6148 15.04C46.6148 13.2053 46.9561 11.5947 47.6388 10.208C48.3428 8.82133 49.2921 7.75467 50.4868 7.008C51.6814 6.26133 53.0148 5.888 54.4868 5.888C55.7454 5.888 56.8441 6.144 57.7828 6.656C58.7428 7.168 59.4788 7.84 59.9908 8.672V6.144H65.4628V24H59.9908V21.472C59.4574 22.304 58.7108 22.976 57.7508 23.488C56.8121 24 55.7134 24.256 54.4548 24.256C53.0041 24.256 51.6814 23.8827 50.4868 23.136C49.2921 22.368 48.3428 21.2907 47.6388 19.904C46.9561 18.496 46.6148 16.8747 46.6148 15.04ZM59.9908 15.072C59.9908 13.7067 59.6068 12.6293 58.8388 11.84C58.0921 11.0507 57.1748 10.656 56.0868 10.656C54.9988 10.656 54.0708 11.0507 53.3028 11.84C52.5561 12.608 52.1828 13.6747 52.1828 15.04C52.1828 16.4053 52.5561 17.4933 53.3028 18.304C54.0708 19.0933 54.9988 19.488 56.0868 19.488C57.1748 19.488 58.0921 19.0933 58.8388 18.304C59.6068 17.5147 59.9908 16.4373 59.9908 15.072ZM74.8935 0.32V24H69.4215V0.32H74.8935ZM84.331 0.32V24H78.859V0.32H84.331ZM96.4245 24.256C94.6752 24.256 93.0965 23.8827 91.6885 23.136C90.3018 22.3893 89.2032 21.3227 88.3925 19.936C87.6032 18.5493 87.2085 16.928 87.2085 15.072C87.2085 13.2373 87.6138 11.6267 88.4245 10.24C89.2352 8.832 90.3445 7.75467 91.7525 7.008C93.1605 6.26133 94.7392 5.888 96.4885 5.888C98.2378 5.888 99.8165 6.26133 101.225 7.008C102.633 7.75467 103.742 8.832 104.553 10.24C105.363 11.6267 105.769 13.2373 105.769 15.072C105.769 16.9067 105.353 18.528 104.521 19.936C103.71 21.3227 102.59 22.3893 101.161 23.136C99.7525 23.8827 98.1738 24.256 96.4245 24.256ZM96.4245 19.52C97.4698 19.52 98.3552 19.136 99.0805 18.368C99.8272 17.6 100.201 16.5013 100.201 15.072C100.201 13.6427 99.8378 12.544 99.1125 11.776C98.4085 11.008 97.5338 10.624 96.4885 10.624C95.4218 10.624 94.5365 11.008 93.8325 11.776C93.1285 12.5227 92.7765 13.6213 92.7765 15.072C92.7765 16.5013 93.1178 17.6 93.8005 18.368C94.5045 19.136 95.3792 19.52 96.4245 19.52ZM111.232 24.256C110.272 24.256 109.482 23.9787 108.864 23.424C108.266 22.848 107.968 22.144 107.968 21.312C107.968 20.4587 108.266 19.744 108.864 19.168C109.482 18.592 110.272 18.304 111.232 18.304C112.17 18.304 112.938 18.592 113.536 19.168C114.154 19.744 114.464 20.4587 114.464 21.312C114.464 22.144 114.154 22.848 113.536 23.424C112.938 23.9787 112.17 24.256 111.232 24.256ZM123.175 1.536V24H117.703V1.536H123.175ZM135.556 1.536C137.924 1.536 139.994 2.00533 141.764 2.944C143.535 3.88267 144.9 5.20533 145.86 6.912C146.842 8.59733 147.332 10.5493 147.332 12.768C147.332 14.9653 146.842 16.9173 145.86 18.624C144.9 20.3307 143.524 21.6533 141.732 22.592C139.962 23.5307 137.903 24 135.556 24H127.14V1.536H135.556ZM135.204 19.264C137.274 19.264 138.884 18.6987 140.036 17.568C141.188 16.4373 141.764 14.8373 141.764 12.768C141.764 10.6987 141.188 9.088 140.036 7.936C138.884 6.784 137.274 6.208 135.204 6.208H132.612V19.264H135.204Z" fill="#073466"/>
</svg>
